HIERARCHY
ROOT reference
{
  OFFSET 0 0 0
  CHANNELS 6 Xposition Yposition Zposition Zrotation Xrotation Yrotation
  JOINT Hips
  {
    OFFSET 349.773 89.4622 219.413
    CHANNELS 3 Zrotation Xrotation Yrotation
    JOINT RightUpLeg
    {
      OFFSET -9.25229 -1.56476 -0.00486621
      CHANNELS 3 Zrotation Xrotation Yrotation
      JOINT RightLeg
      {
        OFFSET 0.0546168 -41.8841 0.068862
        CHANNELS 3 Zrotation Xrotation Yrotation
        JOINT RightFoot
        {
          OFFSET -1.63893 -40.8901 3.53979
          CHANNELS 3 Zrotation Xrotation Yrotation
          End Site
          {
            OFFSET 0 -7.69 17.5
          }
        }
      }
    }
    JOINT LeftUpLeg
    {
      OFFSET 9.30241 -1.63853 -0.0284428
      CHANNELS 3 Zrotation Xrotation Yrotation
      JOINT LeftLeg
      {
        OFFSET 0.0539686 -41.842 -0.0517406
        CHANNELS 3 Zrotation Xrotation Yrotation
        JOINT LeftFoot
        {
          OFFSET 1.12518 -42.5382 -2.5849
          CHANNELS 3 Zrotation Xrotation Yrotation
          End Site
          {
            OFFSET 0 -7.69 17.5
          }
        }
      }
    }
    JOINT Spine
    {
      OFFSET 0.0144198 14.3187 0.0981135
      CHANNELS 3 Zrotation Xrotation Yrotation
      JOINT Spine1
      {
        OFFSET 0.0112165 9.7169 0.0514987
        CHANNELS 3 Zrotation Xrotation Yrotation
        JOINT Spine2
        {
          OFFSET 0.0255827 10.1205 -0.00638435
          CHANNELS 3 Zrotation Xrotation Yrotation
          JOINT Spine3
          {
            OFFSET -0.00190646 9.72552 0.024249
            CHANNELS 3 Zrotation Xrotation Yrotation
            JOINT Neck
            {
              OFFSET -0.136438 10.3681 0.0553958
              CHANNELS 3 Zrotation Xrotation Yrotation
              JOINT Head
              {
                OFFSET 0.0264476 9.5071 0.170402
                CHANNELS 3 Zrotation Xrotation Yrotation
                End Site
                {
                  OFFSET 0 15.95 0
                }
              }
            }
            JOINT RightShoulder
            {
              OFFSET -3.1747 6.92483 0.00547946
              CHANNELS 3 Zrotation Xrotation Yrotation
              JOINT RightArm
              {
                OFFSET -12.7755 -0.0136287 0.0362428
                CHANNELS 3 Zrotation Xrotation Yrotation
                JOINT RightForeArm
                {
                  OFFSET -26.5642 -0.108975 -0.0233747
                  CHANNELS 3 Zrotation Xrotation Yrotation
                  JOINT RightHand
                  {
                    OFFSET -25.905 -0.185223 0.00356295
                    CHANNELS 3 Zrotation Xrotation Yrotation
                    JOINT RightHandThumb1
                    {
                      OFFSET -2.48905 0.190105 3.12053
                      CHANNELS 3 Zrotation Xrotation Yrotation
                      JOINT RightHandThumb2
                      {
                        OFFSET -3.68274 0 0
                        CHANNELS 3 Zrotation Xrotation Yrotation
                        JOINT RightHandThumb3
                        {
                          OFFSET -2.55832 0 0
                          CHANNELS 3 Zrotation Xrotation Yrotation
                          End Site
                          {
                            OFFSET -2.194 0 0
                          }
                        }
                      }
                    }
                    JOINT RightInHandIndex
                    {
                      OFFSET -3.22368 0.508421 1.97842
                      CHANNELS 3 Zrotation Xrotation Yrotation
                      JOINT RightHandIndex1
                      {
                        OFFSET -5.21684 -0.091368 0.999158
                        CHANNELS 3 Zrotation Xrotation Yrotation
                        JOINT RightHandIndex2
                        {
                          OFFSET -3.61937 0 0
                          CHANNELS 3 Zrotation Xrotation Yrotation
                          JOINT RightHandIndex3
                          {
                            OFFSET -2.0521 0 0
                            CHANNELS 3 Zrotation Xrotation Yrotation
                            End Site
                            {
                              OFFSET -1.805 0 0
                            }
                          }
                        }
                      }
                    }
                    JOINT RightInHandMiddle
                    {
                      OFFSET -3.38211 0.517263 0.756737
                      CHANNELS 3 Zrotation Xrotation Yrotation
                      JOINT RightHandMiddle1
                      {
                        OFFSET -5.17411 -0.084 0.313895
                        CHANNELS 3 Zrotation Xrotation Yrotation
                        JOINT RightHandMiddle2
                        {
                          OFFSET -3.94947 0 0
                          CHANNELS 3 Zrotation Xrotation Yrotation
                          JOINT RightHandMiddle3
                          {
                            OFFSET -2.47579 0 0
                            CHANNELS 3 Zrotation Xrotation Yrotation
                            End Site
                            {
                              OFFSET -1.975 0 0
                            }
                          }
                        }
                      }
                    }
                    JOINT RightInHandRing
                    {
                      OFFSET -3.36516 0.537895 -0.128947
                      CHANNELS 3 Zrotation Xrotation Yrotation
                      JOINT RightHandRing1
                      {
                        OFFSET -4.63474 -0.022105 -0.478947
                        CHANNELS 3 Zrotation Xrotation Yrotation
                        JOINT RightHandRing2
                        {
                          OFFSET -3.44238 0 0
                          CHANNELS 3 Zrotation Xrotation Yrotation
                          JOINT RightHandRing3
                          {
                            OFFSET -2.3881 0 0
                            CHANNELS 3 Zrotation Xrotation Yrotation
                            End Site
                            {
                              OFFSET -1.857 0 0
                            }
                          }
                        }
                      }
                    }
                    JOINT RightInHandPinky
                    {
                      OFFSET -3.16105 0.469368 -1.20179
                      CHANNELS 3 Zrotation Xrotation Yrotation
                      JOINT RightHandPinky1
                      {
                        OFFSET -4.14105 -0.022105 -1.09053
                        CHANNELS 3 Zrotation Xrotation Yrotation
                        JOINT RightHandPinky2
                        {
                          OFFSET -2.75653 0 0
                          CHANNELS 3 Zrotation Xrotation Yrotation
                          JOINT RightHandPinky3
                          {
                            OFFSET -1.74189 0 0
                            CHANNELS 3 Zrotation Xrotation Yrotation
                            End Site
                            {
                              OFFSET -1.645 0 0
                            }
                          }
                        }
                      }
                    }
                  }
                }
              }
            }
            JOINT LeftShoulder
            {
              OFFSET 3.23079 6.93624 -0.032633
              CHANNELS 3 Zrotation Xrotation Yrotation
              JOINT LeftArm
              {
                OFFSET 12.8235 -0.00564763 -0.0637926
                CHANNELS 3 Zrotation Xrotation Yrotation
                JOINT LeftForeArm
                {
                  OFFSET 26.4641 -0.00020372 -0.0407631
                  CHANNELS 3 Zrotation Xrotation Yrotation
                  JOINT LeftHand
                  {
                    OFFSET 25.9912 -0.0207868 -0.0178714
                    CHANNELS 3 Zrotation Xrotation Yrotation
                    JOINT LeftHandThumb1
                    {
                      OFFSET 2.48905 0.190105 3.12053
                      CHANNELS 3 Zrotation Xrotation Yrotation
                      JOINT LeftHandThumb2
                      {
                        OFFSET 3.68274 0 0
                        CHANNELS 3 Zrotation Xrotation Yrotation
                        JOINT LeftHandThumb3
                        {
                          OFFSET 2.55832 0 0
                          CHANNELS 3 Zrotation Xrotation Yrotation
                          End Site
                          {
                            OFFSET 2.194 0 0
                          }
                        }
                      }
                    }
                    JOINT LeftInHandIndex
                    {
                      OFFSET 3.22368 0.508421 1.97842
                      CHANNELS 3 Zrotation Xrotation Yrotation
                      JOINT LeftHandIndex1
                      {
                        OFFSET 5.21684 -0.091368 0.999158
                        CHANNELS 3 Zrotation Xrotation Yrotation
                        JOINT LeftHandIndex2
                        {
                          OFFSET 3.61937 0 0
                          CHANNELS 3 Zrotation Xrotation Yrotation
                          JOINT LeftHandIndex3
                          {
                            OFFSET 2.0521 0 0
                            CHANNELS 3 Zrotation Xrotation Yrotation
                            End Site
                            {
                              OFFSET 1.805 0 0
                            }
                          }
                        }
                      }
                    }
                    JOINT LeftInHandMiddle
                    {
                      OFFSET 3.38211 0.517263 0.756737
                      CHANNELS 3 Zrotation Xrotation Yrotation
                      JOINT LeftHandMiddle1
                      {
                        OFFSET 5.17411 -0.084 0.313895
                        CHANNELS 3 Zrotation Xrotation Yrotation
                        JOINT LeftHandMiddle2
                        {
                          OFFSET 3.94947 0 0
                          CHANNELS 3 Zrotation Xrotation Yrotation
                          JOINT LeftHandMiddle3
                          {
                            OFFSET 2.47579 0 0
                            CHANNELS 3 Zrotation Xrotation Yrotation
                            End Site
                            {
                              OFFSET 1.975 0 0
                            }
                          }
                        }
                      }
                    }
                    JOINT LeftInHandRing
                    {
                      OFFSET 3.36516 0.537895 -0.128947
                      CHANNELS 3 Zrotation Xrotation Yrotation
                      JOINT LeftHandRing1
                      {
                        OFFSET 4.63474 -0.022105 -0.478947
                        CHANNELS 3 Zrotation Xrotation Yrotation
                        JOINT LeftHandRing2
                        {
                          OFFSET 3.44238 0 0
                          CHANNELS 3 Zrotation Xrotation Yrotation
                          JOINT LeftHandRing3
                          {
                            OFFSET 2.3881 0 0
                            CHANNELS 3 Zrotation Xrotation Yrotation
                            End Site
                            {
                              OFFSET 1.857 0 0
                            }
                          }
                        }
                      }
                    }
                    JOINT LeftInHandPinky
                    {
                      OFFSET 3.16105 0.469368 -1.20179
                      CHANNELS 3 Zrotation Xrotation Yrotation
                      JOINT LeftHandPinky1
                      {
                        OFFSET 4.14105 -0.022105 -1.09053
                        CHANNELS 3 Zrotation Xrotation Yrotation
                        JOINT LeftHandPinky2
                        {
                          OFFSET 2.75653 0 0
                          CHANNELS 3 Zrotation Xrotation Yrotation
                          JOINT LeftHandPinky3
                          {
                            OFFSET 1.74189 0 0
                            CHANNELS 3 Zrotation Xrotation Yrotation
                            End Site
                            {
                              OFFSET 1.645 0 0
                            }
                          }
                        }
                      }
                    }
                  }
                }
              }
            }
          }
        }
      }
    }
  }
}
MOTION
Frames: 2
Frame Time: 0.00833333
6.000000000000000000e+02 0.000000000000000000e+00 0.000000000000000000e+00 0.000000000000000000e+00 0.000000000000000000e+00 0.000000000000000000e+00 2.257799082048518535e+00 -1.932057261128393488e+00 -6.902809077576440799e+00 5.187163047465213950e+00 -5.970809429072525543e-01 8.389849580825039510e+00 -7.279906283733428296e-01 -3.471555492559148970e+00 1.377539661850166963e+00 -1.168161888962603312e+00 5.938168279150725093e-01 -5.772435918358156393e-01 5.283004277036643437e+00 2.853041674897873303e+00 5.788666029080994591e+00 -3.417620697067798030e+00 -8.560984859299000105e-01 2.867703286774623717e+00 2.574753085605716030e-01 -1.337296895969882993e+00 1.819838616425959454e+00 -1.905790101662730329e+00 -6.696768790548379702e-01 3.894380173252667721e+00 -4.433867889546078134e-01 -1.058871294007616287e-01 9.957764835072694387e-01 -7.334587582286483665e-01 -1.565847829278104730e-01 1.362333437866654062e+00 1.019560627443835341e-02 -6.366785744325398344e-02 -1.477362403598933283e-01 -2.072749309195736633e-01 -1.185097738944167922e+00 1.446838299988369159e-01 7.677520738751592022e-01 1.360251049303620174e+00 -3.459828236697134241e+00 -3.063845554803225291e+00 4.767665718888126070e-01 1.808185888862408941e+00 -1.067088852442034863e+01 -7.857771553538109188e+00 4.854125034659013238e+00 -4.841009206338541482e+00 5.807647087101813099e+00 -3.432405521074685595e+01 5.231451048519198954e-01 1.526888613618113011e+00 -1.232093222670595445e+01 0.000000000000000000e+00 0.000000000000000000e+00 0.000000000000000000e+00 -3.037933761940913132e-15 9.549918600156517729e-15 0.000000000000000000e+00 -1.277996057791091429e-15 2.035391358116676116e-15 0.000000000000000000e+00 -5.603944432740715869e-15 -2.943002221629245957e-16 -2.105721985714491305e-15 0.000000000000000000e+00 0.000000000000000000e+00 0.000000000000000000e+00 0.000000000000000000e+00 4.865493365099091470e-15 2.838518017639201789e-15 0.000000000000000000e+00 -3.746250326503770463e-16 1.218691299933628094e-14 -5.603944432740715869e-15 -2.943002221629245957e-16 -2.105721985714491305e-15 0.000000000000000000e+00 6.357296927656597904e-15 5.548453816498808667e-17 0.000000000000000000e+00 -8.232523835073789073e-16 1.040151626954740696e-14 0.000000000000000000e+00 2.413004926841514791e-15 -6.145369605045843053e-15 -5.603944432740715869e-15 -2.943002221629245957e-16 -2.105721985714491305e-15 0.000000000000000000e+00 0.000000000000000000e+00 0.000000000000000000e+00 0.000000000000000000e+00 1.626870950569882952e-15 5.601047937724189285e-16 0.000000000000000000e+00 -8.171812402261623508e-16 -1.347005067684617859e-14 -5.603944432740715869e-15 -2.943002221629245957e-16 -2.105721985714491305e-15 0.000000000000000000e+00 0.000000000000000000e+00 0.000000000000000000e+00 0.000000000000000000e+00 -4.923535054287237778e-15 1.674011944601263831e-14 0.000000000000000000e+00 -2.381359252944902604e-16 5.657927146107306441e-15 2.250915185659901674e+00 -4.812829772893625346e+00 -1.130601887324186539e+00 -5.143914715903004975e+00 4.204627746733287985e+00 -8.148313326825017133e-02 -6.535705700808661334e+01 -1.113769793307796263e+01 -5.732807414891959041e+01 5.542487008308282448e+00 -9.569338645051136183e+00 2.762094727664083038e+00 0.000000000000000000e+00 0.000000000000000000e+00 0.000000000000000000e+00 -2.612341327689855471e-15 -4.032918081320935374e-15 0.000000000000000000e+00 2.606520544748520906e-15 -2.740805771462571815e-15 0.000000000000000000e+00 6.315683867052477434e-15 9.159965001556788732e-16 1.675603600928716472e-15 0.000000000000000000e+00 0.000000000000000000e+00 0.000000000000000000e+00 0.000000000000000000e+00 8.280608631716909334e-16 -1.167778676042139350e-14 0.000000000000000000e+00 -2.619389891715457487e-15 -1.837884853823974161e-15 6.315683867052477434e-15 9.159965001556788732e-16 1.675603600928716472e-15 0.000000000000000000e+00 -7.622587604284931821e-16 -3.378765147410443345e-15 0.000000000000000000e+00 -2.038522729709808584e-15 -7.914721248700832790e-15 0.000000000000000000e+00 2.753761518781215941e-15 -3.279562497214602678e-15 6.315683867052477434e-15 9.159965001556788732e-16 1.675603600928716472e-15 0.000000000000000000e+00 0.000000000000000000e+00 0.000000000000000000e+00 0.000000000000000000e+00 3.558613866990915073e-15 -1.184015715048197352e-14 0.000000000000000000e+00 2.946410448077764888e-15 -4.518252503051501680e-15 6.315683867052477434e-15 9.159965001556788732e-16 1.675603600928716472e-15 0.000000000000000000e+00 0.000000000000000000e+00 0.000000000000000000e+00 0.000000000000000000e+00 -8.006711789932467953e-15 -3.648856686023223294e-15 0.000000000000000000e+00 2.988272750857495590e-15 -7.007788350055440087e-15
6.000000000000000000e+02 0.000000000000000000e+00 0.000000000000000000e+00 0.000000000000000000e+00 0.000000000000000000e+00 0.000000000000000000e+00 2.247688529391291823e+00 -2.052584369585389368e+00 -6.886632758141910671e+00 5.065243178405299140e+00 -6.181026558530429149e-01 8.414092902055905654e+00 -7.712191918109985167e-01 -3.459169905493034936e+00 1.339686822856688275e+00 -1.189849559276493274e+00 6.240563471010776020e-01 -5.811220150503326742e-01 5.166940494246665239e+00 2.893924380529039109e+00 5.773333252624311740e+00 -3.467390426146888860e+00 -9.624061388160807251e-01 2.939063235092176374e+00 2.417142253344820579e-01 -1.320145995026951180e+00 1.772319783279165062e+00 -2.056545387041428086e+00 -7.051186604780396161e-01 3.933943461815098797e+00 -4.783324215663952717e-01 -1.131150576163586080e-01 1.006255673720355848e+00 -7.904751451529513639e-01 -1.693419249377543789e-01 1.378605384176204485e+00 1.567275020852776368e-02 -6.066941173238850349e-02 -1.561133558566532853e-01 -1.764379918325237884e-01 -1.095638514601800395e+00 -8.781923212245436317e-02 8.189801202493849352e-01 1.299248974750425001e+00 -3.415853955918286111e+00 -3.046764548747165513e+00 5.614291458467542961e-01 1.779775488403431138e+00 -1.053635427486864629e+01 -7.853926653735406660e+00 5.010381209918231882e+00 -5.107017427442070101e+00 6.025136730326431156e+00 -3.389953318244945280e+01 5.981535400410131764e-01 1.661920075778864581e+00 -1.254955789669621957e+01 0.000000000000000000e+00 0.000000000000000000e+00 0.000000000000000000e+00 -3.462038517303671470e-15 8.164319582205663160e-15 0.000000000000000000e+00 -1.279920369227535206e-15 1.323349973179623689e-15 0.000000000000000000e+00 -5.593851633071167710e-15 -2.796659289639044761e-16 -1.650260952016861098e-15 0.000000000000000000e+00 0.000000000000000000e+00 0.000000000000000000e+00 0.000000000000000000e+00 4.426922529479867813e-15 2.681636174724136746e-15 0.000000000000000000e+00 -2.898133222928955770e-16 1.178916271488150319e-14 -5.593851633071167710e-15 -2.796659289639044761e-16 -1.650260952016861098e-15 0.000000000000000000e+00 6.288606916969498541e-15 7.135468653934654793e-16 0.000000000000000000e+00 -1.648155998432093270e-15 1.006417957203777312e-14 0.000000000000000000e+00 2.069415466748247148e-15 -6.443081687949306633e-15 -5.593851633071167710e-15 -2.796659289639044761e-16 -1.650260952016861098e-15 0.000000000000000000e+00 0.000000000000000000e+00 0.000000000000000000e+00 0.000000000000000000e+00 2.407234104050809349e-15 1.242677747384120200e-15 0.000000000000000000e+00 -5.746936698354665968e-16 -1.226790193067490055e-14 -5.593851633071167710e-15 -2.796659289639044761e-16 -1.650260952016861098e-15 0.000000000000000000e+00 0.000000000000000000e+00 0.000000000000000000e+00 0.000000000000000000e+00 -5.812663238983036294e-15 1.649764755677014453e-14 0.000000000000000000e+00 -1.981373695782053641e-15 6.642730520452340408e-15 2.326429480357383728e+00 -4.756997686270121761e+00 -1.061840255910905695e+00 -5.128566444140155944e+00 4.187816115502694281e+00 -3.657396631518961688e-02 -6.587325516204350606e+01 -1.118437818272335704e+01 -5.828597301508711581e+01 5.511851240633320437e+00 -9.499835780123280671e+00 2.518279092442012423e+00 0.000000000000000000e+00 0.000000000000000000e+00 0.000000000000000000e+00 -2.898027908220086690e-15 -3.514186181285556833e-15 0.000000000000000000e+00 2.446061479492693691e-15 -2.357675216419637790e-15 0.000000000000000000e+00 6.873550268060347020e-15 9.372457676890842077e-16 2.002133944691892757e-15 0.000000000000000000e+00 0.000000000000000000e+00 0.000000000000000000e+00 0.000000000000000000e+00 4.564781778325831729e-16 -1.143416589963481669e-14 0.000000000000000000e+00 -2.403901906455666811e-15 -2.064271572957535013e-15 6.873550268060347020e-15 9.372457676890842077e-16 2.002133944691892757e-15 0.000000000000000000e+00 -8.024352638385148715e-16 -3.342717516768277932e-15 0.000000000000000000e+00 -2.303860521457334767e-15 -7.836907689973897577e-15 0.000000000000000000e+00 2.266150211217504960e-15 -3.112736759533022705e-15 6.873550268060347020e-15 9.372457676890842077e-16 2.002133944691892757e-15 0.000000000000000000e+00 0.000000000000000000e+00 0.000000000000000000e+00 0.000000000000000000e+00 2.849176072056718350e-15 -1.126714700590956040e-14 0.000000000000000000e+00 2.166785929433111730e-15 -3.905037025858387742e-15 6.873550268060347020e-15 9.372457676890842077e-16 2.002133944691892757e-15 0.000000000000000000e+00 0.000000000000000000e+00 0.000000000000000000e+00 0.000000000000000000e+00 -6.565171935468895560e-15 -3.566110467136826774e-15 0.000000000000000000e+00 4.099414878622144774e-15 -7.075500094497804717e-15
